<svg xmlns="http://www.w3.org/2000/svg" viewBox="0 0 512 512" role="img" aria-labelledby="title"><title id="title">홍보잇다</title><rect width="512" height="512" rx="112" fill="#FFF8EF"/><path fill="#E88942" fill-rule="evenodd" d="M448 161 C435 178 415 184 393 193 C359 207 337 225 312 248 C264 204 218 187 158 187 C88 187 32 220 32 274 C32 327 83 355 151 355 C220 355 266 334 313 292 C353 338 377 352 412 349 C463 345 480 308 480 261 C480 219 466 186 448 161 Z
M91 274 C91 250 120 239 160 239 C204 239 245 255 277 277 C242 302 204 314 160 314 C119 314 91 302 91 274 Z
M345 274 C373 247 398 228 416 227 C437 226 445 245 444 266 C443 293 429 309 411 309 C389 310 367 293 345 274 Z"/><path fill="#26364A" d="M280 266 C290 257 301 248 312 240 C333 257 350 290 372 309 C337 308 308 293 280 266 Z"/></svg>
